<svg width="32" height="32" viewBox="0 0 32 32" fill="none" xmlns="http://www.w3.org/2000/svg">
<rect width="32" height="32" rx="4" fill="#121212"/>
<path d="M3.752 24V7.2H14.336V9.552H6.344V14.376H13.664V16.728H6.344V21.648H14.456V24H3.752ZM17.1583 24V7.2H23.8303C24.8543 7.2 25.7663 7.408 26.5663 7.824C27.3823 8.224 28.0143 8.8 28.4623 9.552C28.9263 10.288 29.1583 11.176 29.1583 12.216V12.528C29.1583 13.568 28.9183 14.464 28.4383 15.216C27.9743 15.968 27.3423 16.544 26.5423 16.944C25.7423 17.344 24.8383 17.544 23.8303 17.544H19.7503V24H17.1583ZM19.7503 15.192H23.5663C24.4783 15.192 25.2063 14.952 25.7503 14.472C26.2943 13.992 26.5663 13.336 26.5663 12.504V12.264C26.5663 11.416 26.2943 10.752 25.7503 10.272C25.2063 9.792 24.4783 9.552 23.5663 9.552H19.7503V15.192Z" fill="white"/>
</svg>
